<svg width="30" height="30" viewBox="0 0 30 30" fill="none" xmlns="http://www.w3.org/2000/svg">
<path d="M9.13879 0.9375C4.61686 0.9375 0.9375 4.61903 0.9375 9.14209V20.8601C0.9375 25.3826 4.61903 29.0625 9.14209 29.0625H20.8601C25.3826 29.0625 29.0625 25.381 29.0625 20.8579V9.13879C29.0625 4.61686 25.381 0.9375 20.8579 0.9375H9.13879ZM23.4375 5.4375C24.0585 5.4375 24.5625 5.9415 24.5625 6.5625C24.5625 7.1835 24.0585 7.6875 23.4375 7.6875C22.8165 7.6875 22.3125 7.1835 22.3125 6.5625C22.3125 5.9415 22.8165 5.4375 23.4375 5.4375ZM15 7.6875C19.0331 7.6875 22.3125 10.9669 22.3125 15C22.3125 19.0331 19.0326 22.3125 15 22.3125C10.9669 22.3125 7.6875 19.0326 7.6875 15C7.6875 10.9674 10.9669 7.6875 15 7.6875ZM15 9.9375C12.2038 9.9375 9.9375 12.2038 9.9375 15C9.9375 17.7962 12.2038 20.0625 15 20.0625C17.7962 20.0625 20.0625 17.7962 20.0625 15C20.0625 12.2038 17.7962 9.9375 15 9.9375Z" fill="black"/>
</svg>
