<svg width="30" height="30" viewBox="0 0 30 30" fill="none" xmlns="http://www.w3.org/2000/svg">
<path d="M14.9993 0.279297C23.1292 0.279297 29.7193 6.86938 29.7193 14.9993C29.7193 23.1292 23.1292 29.7193 14.9993 29.7193C6.86938 29.7193 0.279297 23.1292 0.279297 14.9993C0.279297 6.86938 6.86938 0.279297 14.9993 0.279297ZM20.0771 20.9993C20.3478 20.1686 21.6163 11.8895 21.7731 10.2582C21.8204 9.7641 21.6643 9.43578 21.3583 9.28922C20.9884 9.1113 20.4406 9.20026 19.8051 9.42938C18.9334 9.74362 7.7897 14.4751 7.14586 14.7491C6.5353 15.0083 5.95802 15.2911 5.95802 15.7007C5.95802 15.9887 6.1289 16.1507 6.59994 16.319C7.09018 16.4937 8.32474 16.8681 9.0537 17.0691C9.75578 17.263 10.5551 17.0947 11.0031 16.8163C11.478 16.5212 16.9583 12.854 17.3519 12.5327C17.7449 12.2115 18.0585 12.623 17.7372 12.9449C17.4159 13.2662 13.654 16.9174 13.158 17.423C12.5558 18.0367 12.9833 18.6729 13.3871 18.9276C13.8486 19.2182 17.167 21.4441 17.6668 21.8012C18.1667 22.1583 18.6735 22.3203 19.1375 22.3203C19.6015 22.3203 19.846 21.7091 20.0771 20.9993Z" fill="black"/>
</svg>
