<svg width="30" height="30" viewBox="0 0 30 30" fill="none" xmlns="http://www.w3.org/2000/svg">
<path d="M14.9994 0.279297C6.88291 0.279297 0.279392 6.88282 0.279392 14.9993C0.279392 17.5337 0.934112 20.0259 2.17571 22.2249L0.303072 28.9065C0.241632 29.126 0.301152 29.3615 0.459872 29.5247C0.582112 29.6508 0.748512 29.7193 0.919392 29.7193C0.970592 29.7193 1.02243 29.7129 1.07299 29.7007L8.04643 27.9734C10.1757 29.1164 12.5738 29.7193 14.9994 29.7193C23.1159 29.7193 29.7194 23.1158 29.7194 14.9993C29.7194 6.88282 23.1159 0.279297 14.9994 0.279297ZM22.4042 20.1935C22.0893 21.0652 20.5789 21.8607 19.8532 21.9676C19.2016 22.063 18.3773 22.1039 17.4724 21.8198C16.9239 21.647 16.2199 21.4179 15.3181 21.0332C11.5274 19.4166 9.05187 15.6476 8.86243 15.3987C8.67363 15.1497 7.31939 13.3756 7.31939 11.5395C7.31939 9.7033 8.29539 8.80026 8.64227 8.4265C8.98915 8.05274 9.39811 7.9593 9.65027 7.9593C9.90243 7.9593 10.154 7.9625 10.3748 7.97274C10.6071 7.98426 10.9188 7.88506 11.2253 8.61338C11.5402 9.3609 12.296 11.1971 12.3895 11.3846C12.4842 11.5715 12.5469 11.7897 12.4215 12.0387C12.296 12.2876 12.2333 12.4431 12.0439 12.6614C11.8544 12.8796 11.6471 13.1478 11.4768 13.3155C11.2874 13.5017 11.0909 13.7033 11.3111 14.0771C11.5312 14.4508 12.2896 15.6726 13.4135 16.662C14.8567 17.9331 16.0746 18.3273 16.4522 18.5142C16.8298 18.7011 17.0506 18.6697 17.2708 18.4207C17.4909 18.1711 18.2154 17.3308 18.4669 16.9577C18.7184 16.5846 18.9706 16.646 19.3175 16.7708C19.6644 16.895 21.5223 17.7974 21.8999 17.9843C22.2775 18.1711 22.5296 18.2646 22.6244 18.4201C22.7191 18.575 22.7191 19.3225 22.4042 20.1935Z" fill="black"/>
</svg>
