<svg width="32" height="24" viewBox="0 0 32 24" fill="none" xmlns="http://www.w3.org/2000/svg">
<path d="M30.327 4.44047C30.0402 2.85703 28.6733 1.70391 27.087 1.34391C24.7133 0.840469 20.3202 0.480469 15.567 0.480469C10.8167 0.480469 6.35328 0.840469 3.97672 1.34391C2.39328 1.70391 1.02359 2.78391 0.736719 4.44047C0.447032 6.24047 0.160156 8.76047 0.160156 12.0005C0.160156 15.2405 0.447032 17.7605 0.807032 19.5605C1.09672 21.1439 2.46359 22.297 4.04703 22.657C6.56703 23.1605 10.887 23.5205 15.6402 23.5205C20.3933 23.5205 24.7133 23.1605 27.2333 22.657C28.8167 22.297 30.1836 21.217 30.4733 19.5605C30.7602 17.7605 31.1202 15.1673 31.1933 12.0005C31.047 8.76047 30.687 6.24047 30.327 4.44047ZM11.6802 17.0405V6.96047L20.4636 12.0005L11.6802 17.0405Z" fill="black"/>
</svg>
