<svg width="246" height="53" viewBox="0 0 246 53" fill="none" xmlns="http://www.w3.org/2000/svg">
<mask id="mask0_41_2823" style="mask-type:luminance" maskUnits="userSpaceOnUse" x="0" y="0" width="246" height="53">
<path d="M245.685 0H0V53H245.685V0Z" fill="white"/>
</mask>
<g mask="url(#mask0_41_2823)">
<path d="M18.9156 20.3789L13.2812 32.6275H14.8382L16.3211 29.3429H22.7153L24.2157 32.6275H25.7713L20.1373 20.3789H18.9156ZM16.9165 28.0465L19.5179 22.3036L22.1334 28.0465H16.9165Z" fill="black"/>
<path d="M31.0742 20.3789H29.6445V32.6275H37.7921V31.2804H31.0742V20.3789Z" fill="black"/>
<path d="M43.3261 20.3789H41.8965V32.6275H50.0427V31.2804H43.3261V20.3789Z" fill="black"/>
<path d="M55.5745 20.3789H54.1445V32.6272H55.5745V20.3789Z" fill="black"/>
<path d="M65.0855 20.3789L59.4512 32.6272H61.0078L62.4914 29.3426H68.8846L70.3859 32.6272H71.9402L66.3072 20.3789H65.0855ZM63.0871 28.0465L65.6881 22.3036L68.3033 28.0465H63.0871Z" fill="black"/>
<path d="M84.4623 29.9623L76.9599 20.3789H75.8125V32.6275H77.2421V23.0415L84.7617 32.6275H85.8923V20.3789H84.4623V29.9623Z" fill="black"/>
<path d="M94.6127 22.2907C95.367 21.8722 96.2161 21.6597 97.1388 21.6597C98.5283 21.6597 99.6339 22.0851 100.519 22.9591L100.727 23.1644L101.656 22.2068L101.467 22.0055C100.94 21.4439 100.294 21.0127 99.5421 20.7242C98.8016 20.441 97.9809 20.2969 97.1049 20.2969C95.9164 20.2969 94.8285 20.5673 93.8719 21.1005C92.9127 21.6354 92.1476 22.3828 91.5969 23.3232C91.0449 24.2641 90.7656 25.3338 90.7656 26.5032C90.7656 27.6733 91.0452 28.7431 91.5969 29.6839C92.1489 30.625 92.914 31.3731 93.8719 31.9066C94.8272 32.4399 95.9151 32.7103 97.1049 32.7103C97.9697 32.7103 98.7872 32.5639 99.5355 32.2741C100.288 31.9823 100.938 31.5487 101.467 30.9852L101.656 30.7836L100.727 29.8247L100.519 30.0309C99.6349 30.904 98.4973 31.3474 97.1388 31.3474C96.2138 31.3474 95.3637 31.1359 94.6127 30.7175C93.8627 30.3007 93.265 29.7174 92.838 28.9836C92.4114 28.2477 92.1939 27.4135 92.1939 26.5036C92.1939 25.5943 92.4114 24.7601 92.838 24.0239C93.2653 23.2907 93.8617 22.7074 94.6127 22.2907Z" fill="black"/>
<path d="M107.744 27.0764H113.962V25.7468H107.744V21.7256H114.694V20.3789H106.314V32.6275H114.945V31.2804H107.744V27.0764Z" fill="black"/>
<path d="M163.556 22.2907C164.315 21.8716 165.18 21.6591 166.124 21.6591C166.819 21.6591 167.462 21.7627 168.036 21.9673C168.597 22.1683 169.113 22.5015 169.57 22.9578L169.782 23.1686L170.709 22.1824L170.514 21.9834C169.975 21.4337 169.321 21.01 168.569 20.7235C167.823 20.441 166.995 20.2969 166.107 20.2969C164.897 20.2969 163.793 20.5666 162.826 21.0998C161.855 21.6347 161.083 22.3824 160.532 23.3232C159.98 24.2641 159.701 25.3338 159.701 26.5032C159.701 27.6733 159.981 28.7431 160.532 29.6839C161.084 30.6257 161.855 31.3734 162.826 31.9073C163.792 32.4405 164.89 32.7103 166.09 32.7103C166.933 32.7103 167.742 32.5757 168.495 32.3099C169.258 32.0428 169.918 31.6458 170.458 31.1306L170.547 31.0451V26.2631H169.152V30.4286C168.347 31.0379 167.329 31.3468 166.125 31.3468C165.178 31.3468 164.318 31.1323 163.566 30.7092C162.815 30.2869 162.214 29.7 161.782 28.9645C161.35 28.2299 161.13 27.4016 161.13 26.5029C161.13 25.593 161.347 24.7591 161.775 24.0233C162.2 23.29 162.799 22.7068 163.556 22.2907Z" fill="black"/>
<path d="M184.896 27.1024C185.405 26.4257 185.663 25.5849 185.663 24.6027C185.663 23.2862 185.208 22.2385 184.309 21.4888C183.426 20.7526 182.203 20.3789 180.672 20.3789H176.199V32.6272H177.629V28.81H180.672C180.98 28.81 181.315 28.7886 181.67 28.7462L184.441 32.6275H186.12L183.103 28.4044C183.859 28.1202 184.46 27.683 184.896 27.1024ZM177.63 21.7256H180.672C181.84 21.7256 182.737 21.9803 183.338 22.4829C183.929 22.9803 184.217 23.6734 184.217 24.6027C184.217 25.5333 183.929 26.2267 183.338 26.7224C182.738 27.2248 181.842 27.48 180.672 27.48H177.63V21.7256Z" fill="black"/>
<path d="M199.183 21.0998C198.221 20.5666 197.131 20.2969 195.943 20.2969C194.753 20.2969 193.662 20.5702 192.701 21.1084C191.739 21.6469 190.97 22.3979 190.418 23.3407C189.866 24.2812 189.586 25.3453 189.586 26.5032C189.586 27.6612 189.866 28.7256 190.418 29.6668C190.97 30.6079 191.738 31.3596 192.701 31.8984C193.662 32.4369 194.753 32.7103 195.943 32.7103C197.132 32.7103 198.223 32.4405 199.183 31.9073C200.146 31.3741 200.915 30.626 201.468 29.6839C202.02 28.7431 202.299 27.6727 202.299 26.5032C202.299 25.3338 202.019 24.2641 201.468 23.3232C200.916 22.3818 200.147 21.6344 199.183 21.0998ZM195.943 31.3471C195.019 31.3471 194.172 31.1356 193.425 30.7178C192.681 30.301 192.087 29.7178 191.659 28.9832C191.232 28.2474 191.016 27.4131 191.016 26.5032C191.016 25.594 191.232 24.7598 191.659 24.0236C192.086 23.29 192.681 22.7065 193.425 22.2897C194.174 21.8716 195.021 21.6597 195.943 21.6597C196.865 21.6597 197.708 21.8719 198.451 22.2893C199.191 22.7058 199.782 23.2894 200.209 24.0236C200.637 24.7588 200.853 25.593 200.853 26.5032C200.853 27.4141 200.637 28.2483 200.209 28.9832C199.782 29.7184 199.19 30.3027 198.451 30.7185C197.71 31.1356 196.867 31.3471 195.943 31.3471Z" fill="black"/>
<path d="M215.57 27.353C215.57 28.7047 215.265 29.7205 214.663 30.3732C214.067 31.0192 213.186 31.3469 212.042 31.3469C210.887 31.3469 210 31.0192 209.405 30.3732C208.803 29.7215 208.498 28.7054 208.498 27.353V20.3789H207.068V27.3869C207.068 29.1005 207.507 30.4288 208.373 31.3363C209.243 32.2482 210.472 32.7101 212.026 32.7101C213.579 32.7101 214.809 32.2485 215.684 31.3377C216.556 30.4304 216.998 29.1018 216.998 27.3869V20.3789H215.569V27.353H215.57Z" fill="black"/>
<path d="M230.996 21.4888C230.113 20.7526 228.89 20.3789 227.359 20.3789H222.887V32.6272H224.317V28.81H227.359C228.89 28.81 230.113 28.437 230.995 27.7011C231.895 26.9524 232.351 25.9103 232.351 24.6027C232.351 23.2855 231.895 22.2378 230.996 21.4888ZM227.359 27.4639H224.317V21.7256H227.359C228.528 21.7256 229.424 21.9803 230.025 22.4829C230.616 22.9803 230.904 23.6734 230.904 24.6027C230.904 25.532 230.617 26.2228 230.026 26.7132C229.426 27.2116 228.529 27.4639 227.359 27.4639Z" fill="black"/>
<path d="M151.234 35.3551C150.027 35.3755 147.711 35.4831 146.905 33.233C146.097 30.983 139.18 13.2422 139.18 13.2422H138.542L135.041 22.2289L135.305 22.9453L137.483 17.4857L141.67 28.4046H137.382L137.692 29.2004H141.975L143.096 32.1185C143.096 32.1185 143.965 34.0972 142.909 34.9413C142.227 35.4863 140.779 35.3548 140.779 35.3548L140.532 35.9916H159.388V35.3548C159.388 35.3548 154.237 35.3002 151.234 35.3551Z" fill="black"/>
<path d="M133.93 35.3551C132.995 35.3551 131.942 34.4212 132.303 32.6811C132.662 30.9517 133.169 29.5701 133.169 29.5701L132.833 28.7129L131.368 32.0014C131.368 32.0014 130.648 33.8906 128.822 34.6327C126.996 35.3755 123.348 35.3127 123.348 35.3127L117.738 35.3551V35.992H135.665L135.415 35.3551C135.415 35.3551 134.545 35.3551 133.93 35.3551Z" fill="black"/>
<path d="M139.474 35.5227L133.86 20.8906C133.86 20.8906 133.129 18.9076 134.126 17.9941C134.7 17.4684 136.199 17.6125 136.199 17.6125L136.4 17.0605H117.695V17.6543C117.695 17.6543 122.721 17.7092 125.723 17.6543C126.928 17.6323 129.246 17.5263 130.052 19.7764C130.858 22.0264 137.776 39.7676 137.776 39.7676H138.414L141.914 30.774L141.644 30.0361L139.474 35.5227Z" fill="black"/>
<path d="M141.32 17.0609L141.534 17.6129H142.383C142.383 17.6129 143.404 17.5734 144.048 18.0912V18.0895C144.048 18.0895 145.097 18.782 144.678 21.1133C144.673 21.1323 144.67 21.1498 144.666 21.1679C144.608 21.6202 144.508 22.059 144.377 22.4508C143.994 23.5965 143.805 23.8294 143.805 23.8294L144.165 24.7847C144.165 24.7847 145.162 22.2169 145.906 20.8804C146.647 19.5432 147.349 18.4609 149.364 18.1208C151.382 17.7819 154.768 17.5691 157.025 17.5908C159.285 17.6122 159.364 17.5694 159.364 17.5694V17.0605L141.32 17.0609Z" fill="black"/>
</g>
</svg>
